<svg width="20" height="20" viewBox="0 0 20 20" fill="none" xmlns="http://www.w3.org/2000/svg">
<mask id="path-1-inside-1_1526_867" fill="white">
<path d="M18.5418 17.4999C18.5418 17.4999 19.7224 17.4999 19.7224 16.3194C19.7224 15.1388 18.5418 11.5971 13.8196 11.5971C9.09738 11.5971 7.91683 15.1388 7.91683 16.3194C7.91683 17.4999 9.09738 17.4999 9.09738 17.4999H18.5418ZM9.12336 16.3194C9.11464 16.3182 9.10597 16.3166 9.09738 16.3146C9.09856 16.003 9.29454 15.0987 9.99461 14.2841C10.6463 13.5203 11.7914 12.7777 13.8196 12.7777C15.8466 12.7777 16.9918 13.5214 17.6446 14.2841C18.3447 15.0987 18.5395 16.0042 18.5418 16.3146L18.5324 16.317C18.5269 16.3179 18.5214 16.3187 18.5159 16.3194H9.12336ZM13.8196 9.23603C14.4458 9.23603 15.0464 8.98727 15.4892 8.54448C15.932 8.10168 16.1807 7.50112 16.1807 6.87492C16.1807 6.24871 15.932 5.64816 15.4892 5.20536C15.0464 4.76257 14.4458 4.51381 13.8196 4.51381C13.1934 4.51381 12.5928 4.76257 12.15 5.20536C11.7073 5.64816 11.4585 6.24871 11.4585 6.87492C11.4585 7.50112 11.7073 8.10168 12.15 8.54448C12.5928 8.98727 13.1934 9.23603 13.8196 9.23603ZM17.3613 6.87492C17.3613 7.34002 17.2697 7.80056 17.0917 8.23026C16.9137 8.65995 16.6528 9.05038 16.3239 9.37926C15.9951 9.70813 15.6046 9.96901 15.1749 10.147C14.7452 10.325 14.2847 10.4166 13.8196 10.4166C13.3545 10.4166 12.894 10.325 12.4643 10.147C12.0346 9.96901 11.6441 9.70813 11.3153 9.37926C10.9864 9.05038 10.7255 8.65995 10.5475 8.23026C10.3695 7.80056 10.2779 7.34002 10.2779 6.87492C10.2779 5.93561 10.6511 5.03477 11.3153 4.37058C11.9795 3.70639 12.8803 3.33325 13.8196 3.33325C14.7589 3.33325 15.6598 3.70639 16.3239 4.37058C16.9881 5.03477 17.3613 5.93561 17.3613 6.87492ZM9.02183 11.9277C8.54958 11.779 8.06279 11.6812 7.56975 11.6361C7.29271 11.6098 7.01456 11.5968 6.73627 11.5971C2.01405 11.5971 0.833496 15.1388 0.833496 16.3194C0.833496 17.1068 1.22662 17.4999 2.01405 17.4999H6.99127C6.81626 17.1314 6.72898 16.7273 6.73627 16.3194C6.73627 15.127 7.18134 13.9087 8.02308 12.891C8.30995 12.5439 8.64405 12.2193 9.02183 11.9277ZM6.64183 12.7777C5.94312 13.8275 5.56568 15.0583 5.55572 16.3194H2.01405C2.01405 16.0124 2.20766 15.1034 2.91127 14.2841C3.55468 13.5333 4.67266 12.8013 6.64183 12.7789V12.7777ZM2.60433 7.4652C2.60433 6.52589 2.97747 5.62505 3.64166 4.96086C4.30585 4.29667 5.20669 3.92353 6.146 3.92353C7.0853 3.92353 7.98614 4.29667 8.65033 4.96086C9.31452 5.62505 9.68766 6.52589 9.68766 7.4652C9.68766 8.4045 9.31452 9.30534 8.65033 9.96953C7.98614 10.6337 7.0853 11.0069 6.146 11.0069C5.20669 11.0069 4.30585 10.6337 3.64166 9.96953C2.97747 9.30534 2.60433 8.4045 2.60433 7.4652ZM6.146 5.10409C5.51979 5.10409 4.91923 5.35284 4.47644 5.79564C4.03364 6.23843 3.78488 6.83899 3.78488 7.4652C3.78488 8.0914 4.03364 8.69196 4.47644 9.13475C4.91923 9.57755 5.51979 9.82631 6.146 9.82631C6.7722 9.82631 7.37276 9.57755 7.81555 9.13475C8.25835 8.69196 8.50711 8.0914 8.50711 7.4652C8.50711 6.83899 8.25835 6.23843 7.81555 5.79564C7.37276 5.35284 6.7722 5.10409 6.146 5.10409Z"/>
</mask>
<path d="M18.5418 17.4999C18.5418 17.4999 19.7224 17.4999 19.7224 16.3194C19.7224 15.1388 18.5418 11.5971 13.8196 11.5971C9.09738 11.5971 7.91683 15.1388 7.91683 16.3194C7.91683 17.4999 9.09738 17.4999 9.09738 17.4999H18.5418ZM9.12336 16.3194C9.11464 16.3182 9.10597 16.3166 9.09738 16.3146C9.09856 16.003 9.29454 15.0987 9.99461 14.2841C10.6463 13.5203 11.7914 12.7777 13.8196 12.7777C15.8466 12.7777 16.9918 13.5214 17.6446 14.2841C18.3447 15.0987 18.5395 16.0042 18.5418 16.3146L18.5324 16.317C18.5269 16.3179 18.5214 16.3187 18.5159 16.3194H9.12336ZM13.8196 9.23603C14.4458 9.23603 15.0464 8.98727 15.4892 8.54448C15.932 8.10168 16.1807 7.50112 16.1807 6.87492C16.1807 6.24871 15.932 5.64816 15.4892 5.20536C15.0464 4.76257 14.4458 4.51381 13.8196 4.51381C13.1934 4.51381 12.5928 4.76257 12.15 5.20536C11.7073 5.64816 11.4585 6.24871 11.4585 6.87492C11.4585 7.50112 11.7073 8.10168 12.15 8.54448C12.5928 8.98727 13.1934 9.23603 13.8196 9.23603ZM17.3613 6.87492C17.3613 7.34002 17.2697 7.80056 17.0917 8.23026C16.9137 8.65995 16.6528 9.05038 16.3239 9.37926C15.9951 9.70813 15.6046 9.96901 15.1749 10.147C14.7452 10.325 14.2847 10.4166 13.8196 10.4166C13.3545 10.4166 12.894 10.325 12.4643 10.147C12.0346 9.96901 11.6441 9.70813 11.3153 9.37926C10.9864 9.05038 10.7255 8.65995 10.5475 8.23026C10.3695 7.80056 10.2779 7.34002 10.2779 6.87492C10.2779 5.93561 10.6511 5.03477 11.3153 4.37058C11.9795 3.70639 12.8803 3.33325 13.8196 3.33325C14.7589 3.33325 15.6598 3.70639 16.3239 4.37058C16.9881 5.03477 17.3613 5.93561 17.3613 6.87492ZM9.02183 11.9277C8.54958 11.779 8.06279 11.6812 7.56975 11.6361C7.29271 11.6098 7.01456 11.5968 6.73627 11.5971C2.01405 11.5971 0.833496 15.1388 0.833496 16.3194C0.833496 17.1068 1.22662 17.4999 2.01405 17.4999H6.99127C6.81626 17.1314 6.72898 16.7273 6.73627 16.3194C6.73627 15.127 7.18134 13.9087 8.02308 12.891C8.30995 12.5439 8.64405 12.2193 9.02183 11.9277ZM6.64183 12.7777C5.94312 13.8275 5.56568 15.0583 5.55572 16.3194H2.01405C2.01405 16.0124 2.20766 15.1034 2.91127 14.2841C3.55468 13.5333 4.67266 12.8013 6.64183 12.7789V12.7777ZM2.60433 7.4652C2.60433 6.52589 2.97747 5.62505 3.64166 4.96086C4.30585 4.29667 5.20669 3.92353 6.146 3.92353C7.0853 3.92353 7.98614 4.29667 8.65033 4.96086C9.31452 5.62505 9.68766 6.52589 9.68766 7.4652C9.68766 8.4045 9.31452 9.30534 8.65033 9.96953C7.98614 10.6337 7.0853 11.0069 6.146 11.0069C5.20669 11.0069 4.30585 10.6337 3.64166 9.96953C2.97747 9.30534 2.60433 8.4045 2.60433 7.4652ZM6.146 5.10409C5.51979 5.10409 4.91923 5.35284 4.47644 5.79564C4.03364 6.23843 3.78488 6.83899 3.78488 7.4652C3.78488 8.0914 4.03364 8.69196 4.47644 9.13475C4.91923 9.57755 5.51979 9.82631 6.146 9.82631C6.7722 9.82631 7.37276 9.57755 7.81555 9.13475C8.25835 8.69196 8.50711 8.0914 8.50711 7.4652C8.50711 6.83899 8.25835 6.23843 7.81555 5.79564C7.37276 5.35284 6.7722 5.10409 6.146 5.10409Z" fill="white"/>
<path d="M9.12336 16.3194L2.29457 65.8508L5.69289 66.3194H9.12336V16.3194ZM9.09738 16.3146L-40.9023 16.1252L-41.0541 56.2234L-1.94596 65.0798L9.09738 16.3146ZM9.99461 14.2841L47.9147 46.8734L47.9735 46.805L48.032 46.7364L9.99461 14.2841ZM17.6446 14.2841L-20.339 46.7994L-20.3073 46.8365L-20.2755 46.8734L17.6446 14.2841ZM18.5418 16.3146L30.6672 64.8221L68.8396 55.2802L68.5404 15.9344L18.5418 16.3146ZM18.5324 16.317L26.8785 65.6155L28.7834 65.293L30.6578 64.8245L18.5324 16.317ZM18.5159 16.3194V66.3194H21.4213L24.3072 65.9828L18.5159 16.3194ZM13.8196 9.23603L13.8196 59.236L13.8196 9.23603ZM13.8196 4.51381L13.8196 -45.4862L13.8196 4.51381ZM17.3613 6.87492L67.3613 6.87492L67.3613 6.87492L17.3613 6.87492ZM10.2779 6.87492L60.2779 6.87492L60.2779 6.87492L10.2779 6.87492ZM13.8196 3.33325L13.8196 -46.6667L13.8196 3.33325ZM9.02183 11.9277L39.5731 51.5083L115.377 -7.00259L24.0394 -35.7637L9.02183 11.9277ZM7.56975 11.6361L2.83652 61.4116L2.92394 61.4199L3.01139 61.4279L7.56975 11.6361ZM6.73627 11.5971L6.73627 61.5971H6.77102L6.80577 61.5971L6.73627 11.5971ZM6.99127 17.4999V67.4999H86.0854L52.1576 -3.94786L6.99127 17.4999ZM6.73627 16.3194L56.7283 17.213L56.7363 16.7662V16.3194H6.73627ZM8.02308 12.891L46.5511 44.7594L46.5569 44.7523L46.5628 44.7453L8.02308 12.891ZM6.64183 12.7777H56.6418V-152.594L-34.9823 -14.9248L6.64183 12.7777ZM5.55572 16.3194V66.3194H55.1622L55.5542 16.7144L5.55572 16.3194ZM2.01405 16.3194H-47.9859V66.3194H2.01405V16.3194ZM2.91127 14.2841L40.8432 46.8596L40.8608 46.8392L40.8783 46.8187L2.91127 14.2841ZM6.64183 12.7789L7.21134 62.7756L56.6418 62.2126V12.7789H6.64183ZM2.60433 7.4652L-47.3957 7.4652L2.60433 7.4652ZM6.146 3.92353L6.146 -46.0765L6.146 3.92353ZM9.68766 7.4652L59.6877 7.4652L9.68766 7.4652ZM6.146 5.10409L6.146 -44.8959L6.146 5.10409ZM3.78488 7.4652L-46.2151 7.4652L3.78488 7.4652ZM6.146 9.82631L6.146 59.8263L6.146 9.82631ZM8.50711 7.4652L58.5071 7.4652L8.50711 7.4652ZM18.5418 17.4999C18.5418 67.4999 18.5663 67.4999 18.5908 67.4999C18.5989 67.4999 18.6235 67.4999 18.6399 67.4998C18.6728 67.4998 18.7058 67.4997 18.7389 67.4995C18.8052 67.4993 18.872 67.4989 18.9395 67.4983C19.0744 67.4973 19.2118 67.4956 19.3516 67.4934C19.631 67.4889 19.9209 67.4819 20.2208 67.4719C20.8191 67.4519 21.4656 67.4198 22.1549 67.3705C23.5165 67.2733 25.1351 67.103 26.9462 66.8012C30.3315 66.237 35.6095 65.0154 41.4928 62.0737C47.5719 59.0342 55.1719 53.6897 61.1404 44.7369C67.3176 35.4711 69.7224 25.3637 69.7224 16.3194H-30.2776C-30.2776 7.86527 -28.0204 -1.79939 -22.0646 -10.7331C-16.3174 -19.3539 -9.01251 -24.477 -3.22858 -27.369C2.35959 -30.1631 7.34241 -31.3109 10.5063 -31.8382C12.2068 -32.1216 13.7332 -32.2827 15.0302 -32.3753C15.6872 -32.4222 16.3083 -32.4532 16.8893 -32.4726C17.1806 -32.4823 17.4639 -32.4892 17.7389 -32.4936C17.8764 -32.4958 18.0121 -32.4974 18.1459 -32.4985C18.2128 -32.499 18.2792 -32.4994 18.3452 -32.4997C18.3782 -32.4998 18.4111 -32.4999 18.4438 -32.5C18.4602 -32.5 18.4848 -32.5 18.4929 -32.5001C18.5174 -32.5001 18.5418 -32.5001 18.5418 17.4999ZM69.7224 16.3194C69.7224 3.76564 65.1395 -8.95008 56.5047 -19.024C45.8236 -31.4853 30.315 -38.4029 13.8196 -38.4029V61.5971C2.04642 61.5971 -10.5107 56.4504 -19.421 46.0551C-23.2825 41.55 -25.8116 36.8007 -27.4233 32.4492C-28.8547 28.5845 -30.2776 23.105 -30.2776 16.3194H69.7224ZM13.8196 -38.4029C-2.6758 -38.4029 -18.1843 -31.4853 -28.8654 -19.024C-37.5003 -8.95008 -42.0832 3.76564 -42.0832 16.3194H57.9168C57.9168 23.105 56.4939 28.5845 55.0625 32.4492C53.4509 36.8007 50.9217 41.55 47.0602 46.0551C38.1499 56.4504 25.5928 61.5971 13.8196 61.5971V-38.4029ZM-42.0832 16.3194C-42.0832 25.3637 -39.6784 35.4711 -33.5012 44.7369C-27.5327 53.6897 -19.9326 59.0342 -13.8536 62.0737C-7.97027 65.0154 -2.69232 66.237 0.692972 66.8012C2.50409 67.103 4.12276 67.2733 5.4843 67.3705C6.17356 67.4198 6.82007 67.4519 7.41838 67.4719C7.7183 67.4819 8.00824 67.4889 8.28765 67.4934C8.42743 67.4956 8.56481 67.4973 8.69972 67.4983C8.76718 67.4989 8.83405 67.4993 8.90032 67.4995C8.93346 67.4997 8.96645 67.4998 8.99929 67.4998C9.01569 67.4999 9.04026 67.4999 9.04845 67.4999C9.07292 67.4999 9.09738 67.4999 9.09738 17.4999C9.09738 -32.5001 9.12184 -32.5001 9.14629 -32.5001C9.15446 -32.5 9.179 -32.5 9.19537 -32.5C9.22814 -32.4999 9.26102 -32.4998 9.29402 -32.4997C9.36 -32.4994 9.42645 -32.499 9.49334 -32.4985C9.62711 -32.4974 9.7628 -32.4958 9.90034 -32.4936C10.1753 -32.4892 10.4586 -32.4823 10.7499 -32.4726C11.3309 -32.4532 11.952 -32.4222 12.609 -32.3753C13.906 -32.2827 15.4324 -32.1216 17.1329 -31.8382C20.2968 -31.3109 25.2796 -30.1631 30.8678 -27.369C36.6517 -24.477 43.9566 -19.3539 49.7038 -10.7331C55.6596 -1.79939 57.9168 7.86527 57.9168 16.3194H-42.0832ZM9.09738 67.4999H18.5418V-32.5001H9.09738V67.4999ZM15.9521 -33.2121C17.3574 -33.0184 18.7549 -32.7644 20.1407 -32.4506L-1.94596 65.0798C-0.542994 65.3976 0.871833 65.6547 2.29457 65.8508L15.9521 -33.2121ZM59.097 16.504C59.0807 20.8087 58.5 24.2056 58.0864 26.1889C57.5991 28.5254 56.9443 30.7788 56.139 32.9408C54.5467 37.2156 51.9885 42.1333 47.9147 46.8734L-27.9255 -18.3052C-36.3911 -8.45495 -40.8561 3.94188 -40.9023 16.1252L59.097 16.504ZM48.032 46.7364C44.03 51.4272 38.6826 55.7757 32.0036 58.7979C25.3834 61.7935 19.0241 62.7777 13.8196 62.7777V-37.2223C-2.30424 -37.2223 -17.5461 -30.4715 -28.0428 -18.1682L48.032 46.7364ZM13.8196 62.7777C8.59732 62.7777 2.23709 61.7875 -4.37424 58.7943C-11.04 55.7765 -16.3619 51.4453 -20.339 46.7994L55.6282 -18.2313C45.1783 -30.4385 29.9899 -37.2223 13.8196 -37.2223V62.7777ZM-20.2755 46.8734C-24.3665 42.1132 -26.9231 37.1816 -28.5087 32.9185C-29.311 30.7614 -29.96 28.5227 -30.4431 26.2116C-30.8545 24.2433 -31.4247 20.9113 -31.4567 16.6949L68.5404 15.9344C68.4495 3.98868 64.0978 -8.3764 55.5647 -18.3052L-20.2755 46.8734ZM6.41641 -32.1928L6.40696 -32.1905L30.6578 64.8245L30.6672 64.8221L6.41641 -32.1928ZM10.1863 -32.9815C11.03 -33.1243 11.8764 -33.2452 12.7245 -33.3441L24.3072 65.9828C25.1664 65.8826 26.0237 65.7602 26.8785 65.6155L10.1863 -32.9815ZM18.5159 -33.6806H9.12336V66.3194H18.5159V-33.6806ZM13.8196 59.236C27.7066 59.236 41.0249 53.7194 50.8445 43.8998L-19.8662 -26.8109C-10.9322 -35.7449 1.18498 -40.764 13.8196 -40.764L13.8196 59.236ZM50.8445 43.8998C60.6641 34.0802 66.1807 20.762 66.1807 6.87492H-33.8193C-33.8193 -5.75972 -28.8002 -17.8769 -19.8662 -26.8109L50.8445 43.8998ZM66.1807 6.87492C66.1807 -7.01213 60.6641 -20.3304 50.8445 -30.15L-19.8662 40.5607C-28.8002 31.6267 -33.8193 19.5096 -33.8193 6.87492H66.1807ZM50.8445 -30.15C41.0249 -39.9696 27.7066 -45.4862 13.8196 -45.4862L13.8196 54.5138C1.18498 54.5138 -10.9322 49.4947 -19.8662 40.5607L50.8445 -30.15ZM13.8196 -45.4862C-0.06743 -45.4862 -13.3857 -39.9696 -23.2053 -30.15L47.5054 40.5607C38.5714 49.4947 26.4542 54.5138 13.8196 54.5138L13.8196 -45.4862ZM-23.2053 -30.15C-33.0249 -20.3304 -38.5415 -7.01213 -38.5415 6.87492H61.4585C61.4585 19.5096 56.4394 31.6267 47.5054 40.5607L-23.2053 -30.15ZM-38.5415 6.87492C-38.5415 20.762 -33.0249 34.0802 -23.2053 43.8998L47.5054 -26.8109C56.4394 -17.8769 61.4585 -5.75972 61.4585 6.87492H-38.5415ZM-23.2053 43.8998C-13.3857 53.7194 -0.06743 59.236 13.8196 59.236L13.8196 -40.764C26.4542 -40.764 38.5714 -35.7449 47.5054 -26.8109L-23.2053 43.8998ZM-32.6387 6.87492C-32.6387 0.773946 -31.4371 -5.26731 -29.1023 -10.9039L63.2857 27.3644C65.9764 20.8684 67.3613 13.9061 67.3613 6.87492L-32.6387 6.87492ZM-29.1023 -10.9039C-26.7675 -16.5405 -23.3455 -21.662 -19.0314 -25.9761L51.6793 44.7346C56.6511 39.7628 60.5949 33.8604 63.2857 27.3644L-29.1023 -10.9039ZM-19.0314 -25.9761C-14.7173 -30.2901 -9.59582 -33.7122 -3.95923 -36.047L34.3091 56.341C40.8051 53.6502 46.7075 49.7064 51.6793 44.7346L-19.0314 -25.9761ZM-3.95923 -36.047C1.67738 -38.3817 7.71863 -39.5834 13.8196 -39.5834V60.4166C20.8508 60.4166 27.8131 59.0317 34.3091 56.341L-3.95923 -36.047ZM13.8196 -39.5834C19.9206 -39.5834 25.9618 -38.3817 31.5984 -36.047L-6.6699 56.341C-0.173908 59.0317 6.78844 60.4166 13.8196 60.4166V-39.5834ZM31.5984 -36.047C37.235 -33.7122 42.3566 -30.2901 46.6706 -25.9761L-24.0401 44.7346C-19.0683 49.7064 -13.1659 53.6502 -6.6699 56.341L31.5984 -36.047ZM46.6706 -25.9761C50.9847 -21.662 54.4068 -16.5405 56.7415 -10.9039L-35.6464 27.3644C-32.9557 33.8604 -29.0119 39.7628 -24.0401 44.7346L46.6706 -25.9761ZM56.7415 -10.9039C59.0763 -5.26731 60.2779 0.773946 60.2779 6.87492L-39.7221 6.87492C-39.7221 13.9061 -38.3372 20.8684 -35.6464 27.3644L56.7415 -10.9039ZM60.2779 6.87492C60.2779 19.1964 55.3832 31.0133 46.6706 39.7259L-24.0401 -30.9848C-34.0811 -20.9437 -39.7221 -7.3252 -39.7221 6.87492L60.2779 6.87492ZM46.6706 39.7259C37.958 48.4385 26.1411 53.3333 13.8196 53.3333L13.8196 -46.6667C-0.380526 -46.6667 -13.9991 -41.0258 -24.0401 -30.9848L46.6706 39.7259ZM13.8196 53.3333C1.49809 53.3333 -10.3188 48.4385 -19.0314 39.7259L51.6793 -30.9848C41.6383 -41.0258 28.0197 -46.6667 13.8196 -46.6667L13.8196 53.3333ZM-19.0314 39.7259C-27.744 31.0133 -32.6387 19.1964 -32.6387 6.87492L67.3613 6.87492C67.3613 -7.3252 61.7203 -20.9437 51.6793 -30.9848L-19.0314 39.7259ZM24.0394 -35.7637C20.1656 -36.9836 16.1724 -37.7854 12.1281 -38.1557L3.01139 61.4279C-0.0468708 61.1479 -3.06642 60.5415 -5.99571 59.6191L24.0394 -35.7637ZM12.303 -38.1394C10.4295 -38.3175 8.54864 -38.4054 6.66677 -38.4028L6.80577 61.5971C5.48048 61.5989 4.15587 61.537 2.83652 61.4116L12.303 -38.1394ZM6.73627 -38.4029C-9.75913 -38.4029 -25.2677 -31.4853 -35.9488 -19.024C-44.5836 -8.95008 -49.1665 3.76564 -49.1665 16.3194H50.8335C50.8335 23.105 49.4105 28.5845 47.9792 32.4492C46.3675 36.8007 43.8384 41.55 39.9769 46.0551C31.0666 56.4504 18.5095 61.5971 6.73627 61.5971L6.73627 -38.4029ZM-49.1665 16.3194C-49.1665 24.4013 -47.117 39.6701 -34.2269 52.5603C-21.3367 65.4504 -6.06793 67.4999 2.01405 67.4999V-32.5001C9.3086 -32.5001 23.9871 -30.6472 36.4838 -18.1504C48.9806 -5.65365 50.8335 9.02482 50.8335 16.3194H-49.1665ZM2.01405 67.4999H6.99127V-32.5001H2.01405V67.4999ZM52.1576 -3.94786C55.2945 2.65821 56.859 9.90104 56.7283 17.213L-43.2557 15.4258C-43.401 23.5535 -41.662 31.6045 -38.175 38.9477L52.1576 -3.94786ZM56.7363 16.3194C56.7363 27.544 52.6096 37.4348 46.5511 44.7594L-30.505 -18.9773C-38.2469 -9.61751 -43.2637 2.71005 -43.2637 16.3194H56.7363ZM46.5628 44.7453C44.4636 47.2851 42.1137 49.5472 39.5731 51.5083L-21.5294 -27.6529C-24.8256 -25.1087 -27.8436 -22.1972 -30.5166 -18.9632L46.5628 44.7453ZM-34.9823 -14.9248C-41.0683 -5.78041 -44.3559 4.94013 -44.4427 15.9243L55.5542 16.7144C55.4873 25.1765 52.9545 33.4355 48.266 40.4802L-34.9823 -14.9248ZM5.55572 -33.6806H2.01405V66.3194H5.55572V-33.6806ZM52.0141 16.3194C52.0141 20.6876 51.4294 24.1261 51.0229 26.0953C50.5395 28.4371 49.8877 30.6963 49.0844 32.8645C47.496 37.1518 44.9354 42.0946 40.8432 46.8596L-35.0207 -18.2915C-43.51 -8.40623 -47.9859 4.05893 -47.9859 16.3194H52.0141ZM40.8783 46.8187C36.9841 51.3631 31.7736 55.6381 25.2274 58.6586C18.7274 61.6577 12.4379 62.7161 7.21134 62.7756L6.07232 -37.2179C-9.96127 -37.0352 -24.8272 -30.187 -35.0558 -18.2506L40.8783 46.8187ZM56.6418 12.7789V12.7777H-43.3582V12.7789H56.6418ZM52.6043 7.4652C52.6043 19.7867 47.7096 31.6036 38.997 40.3162L-31.7137 -30.3945C-41.7547 -20.3535 -47.3957 -6.73494 -47.3957 7.4652L52.6043 7.4652ZM38.997 40.3162C30.2844 49.0288 18.4675 53.9235 6.146 53.9235L6.146 -46.0765C-8.05414 -46.0765 -21.6727 -40.4355 -31.7137 -30.3945L38.997 40.3162ZM6.146 53.9235C-6.17553 53.9235 -17.9924 49.0288 -26.705 40.3162L44.0057 -30.3945C33.9647 -40.4355 20.3461 -46.0765 6.146 -46.0765L6.146 53.9235ZM-26.705 40.3162C-35.4176 31.6036 -40.3123 19.7867 -40.3123 7.4652L59.6877 7.4652C59.6877 -6.73494 54.0467 -20.3535 44.0057 -30.3945L-26.705 40.3162ZM-40.3123 7.4652C-40.3123 -4.85632 -35.4176 -16.6732 -26.705 -25.3858L44.0057 45.3249C54.0467 35.2839 59.6877 21.6653 59.6877 7.4652H-40.3123ZM-26.705 -25.3858C-17.9924 -34.0984 -6.17553 -38.9931 6.146 -38.9931V61.0069C20.3461 61.0069 33.9647 55.3659 44.0057 45.3249L-26.705 -25.3858ZM6.146 -38.9931C18.4675 -38.9931 30.2844 -34.0984 38.997 -25.3858L-31.7137 45.3249C-21.6727 55.3659 -8.05414 61.0069 6.146 61.0069V-38.9931ZM38.997 -25.3858C47.7096 -16.6732 52.6043 -4.85632 52.6043 7.4652L-47.3957 7.4652C-47.3957 21.6653 -41.7547 35.2839 -31.7137 45.3249L38.997 -25.3858ZM6.146 -44.8959C-7.74103 -44.8959 -21.0593 -39.3793 -30.8789 -29.5597L39.8318 41.151C30.8977 50.085 18.7806 55.1041 6.146 55.1041L6.146 -44.8959ZM-30.8789 -29.5597C-40.6985 -19.7401 -46.2151 -6.42182 -46.2151 7.4652L53.7849 7.4652C53.7849 20.0998 48.7658 32.2169 39.8318 41.151L-30.8789 -29.5597ZM-46.2151 7.4652C-46.2151 21.3522 -40.6985 34.6705 -30.8789 44.4901L39.8318 -26.2206C48.7658 -17.2866 53.7849 -5.16941 53.7849 7.4652L-46.2151 7.4652ZM-30.8789 44.4901C-21.0593 54.3097 -7.74103 59.8263 6.146 59.8263L6.146 -40.1737C18.7806 -40.1737 30.8977 -35.1546 39.8318 -26.2206L-30.8789 44.4901ZM6.146 59.8263C20.033 59.8263 33.3513 54.3097 43.1709 44.4901L-27.5398 -26.2206C-18.6058 -35.1546 -6.48862 -40.1737 6.146 -40.1737L6.146 59.8263ZM43.1709 44.4901C52.9905 34.6705 58.5071 21.3522 58.5071 7.4652L-41.4929 7.4652C-41.4929 -5.16941 -36.4738 -17.2866 -27.5398 -26.2206L43.1709 44.4901ZM58.5071 7.4652C58.5071 -6.42182 52.9905 -19.7401 43.1709 -29.5597L-27.5398 41.151C-36.4738 32.2169 -41.4929 20.0998 -41.4929 7.4652L58.5071 7.4652ZM43.1709 -29.5597C33.3513 -39.3793 20.033 -44.8959 6.146 -44.8959L6.146 55.1041C-6.48862 55.1041 -18.6058 50.085 -27.5398 41.151L43.1709 -29.5597Z" fill="white" mask="url(#path-1-inside-1_1526_867)"/>
</svg>
