<svg width="20" height="20" viewBox="0 0 20 20" fill="none" xmlns="http://www.w3.org/2000/svg">
<path d="M18.75 15H10.625V16.875H13.7794C14.125 16.875 14.4044 17.155 14.4044 17.5C14.4044 17.845 14.125 18.125 13.7794 18.125H6.27937C5.93375 18.125 5.65437 17.845 5.65437 17.5C5.65437 17.155 5.93375 16.875 6.27937 16.875H9.375V15H1.25C0.56125 15 0 14.4394 0 13.75V3.125C0 2.43562 0.56125 1.875 1.25 1.875H18.75C19.4394 1.875 20 2.43562 20 3.125V13.75C20 14.4394 19.4394 15 18.75 15ZM1.25 3.125V13.75H18.7481L18.75 3.125H1.25Z" fill="white"/>
<g clip-path="url(#clip0_1526_713)">
<path d="M11.6178 7.39124C12.1177 7.70368 12.3677 7.8599 12.4534 8.05993C12.5283 8.23458 12.5283 8.43233 12.4534 8.60702C12.3677 8.80702 12.1177 8.96323 11.6178 9.2757L9.26982 10.7432C8.71498 11.09 8.43756 11.2634 8.20862 11.2449C8.00906 11.2289 7.82614 11.1275 7.70677 10.9668C7.56982 10.7824 7.56982 10.4553 7.56982 9.80097V6.86596C7.56982 6.21166 7.56982 5.88452 7.70677 5.70013C7.82614 5.53941 8.00906 5.43803 8.20862 5.42198C8.43756 5.40358 8.71498 5.57697 9.26982 5.92374L11.6178 7.39124Z" stroke="white" stroke-width="1.5" stroke-linejoin="round"/>
</g>
<defs>
<clipPath id="clip0_1526_713">
<rect width="8.33333" height="8.33333" fill="white" transform="translate(5.8335 4.16675)"/>
</clipPath>
</defs>
</svg>
