<svg width="20" height="20" viewBox="0 0 20 20" fill="none" xmlns="http://www.w3.org/2000/svg">
<path d="M2.5 12.9662C2.5 11.2099 2.93019 10.8335 4.93733 10.8335H15.0627C17.0698 10.8335 17.5 11.2099 17.5 12.9662V14.5342C17.5 16.2904 17.0698 16.6668 15.0627 16.6668H4.93733C2.93019 16.6668 2.5 16.2904 2.5 14.5342V12.9662Z" stroke="white" stroke-width="1.2"/>
<path d="M5 10.8334V9.43341C5 7.15506 5.39065 6.66675 7.21333 6.66675H12.7867C14.6093 6.66675 15 7.15506 15 9.43341V10.8334" stroke="white" stroke-width="1.2" stroke-linecap="round"/>
<path d="M7.5 6.66667V5" stroke="white" stroke-width="1.2" stroke-linecap="round" stroke-linejoin="round"/>
<path d="M7.5 2.08341V1.66675" stroke="white" stroke-width="1.2" stroke-linecap="round" stroke-linejoin="round"/>
<path d="M12.5 6.66667V5" stroke="white" stroke-width="1.2" stroke-linecap="round" stroke-linejoin="round"/>
<path d="M12.5 2.08341V1.66675" stroke="white" stroke-width="1.2" stroke-linecap="round" stroke-linejoin="round"/>
<path d="M10 6.66667V5" stroke="white" stroke-width="1.2" stroke-linecap="round" stroke-linejoin="round"/>
<path d="M10 2.08341V1.66675" stroke="white" stroke-width="1.2" stroke-linecap="round" stroke-linejoin="round"/>
</svg>
