<svg width="128" height="128" viewBox="0 0 128 128" fill="none" xmlns="http://www.w3.org/2000/svg">
<path d="M106.136 58.9277C105.888 58.1597 105.576 57.4077 105.256 56.6485C105.232 56.3685 105.184 56.0717 105.128 55.7277C104.88 54.7037 104.52 53.3837 103.944 51.5597C103.328 49.7197 103.056 49.3605 103.12 49.8397C103.136 50.0885 103.24 50.5517 103.392 51.1597C103.504 51.7757 103.648 52.5517 103.808 53.4077C103.672 53.1277 103.544 52.8485 103.4 52.5837C102.376 50.4965 101.152 48.5125 99.888 46.5837C99.848 46.5197 99.808 46.4637 99.768 46.3997C99.744 46.3445 99.712 46.2885 99.688 46.2325L98.456 43.4637C98.024 42.5605 97.496 41.6965 97.016 40.7997C96.528 39.9285 96.088 39.0157 95.504 38.1997L95.688 39.2157L95.816 40.2485L95.928 41.2885C95.888 41.2325 95.848 41.1765 95.808 41.1285C94.344 39.4485 92.888 37.7997 91.368 36.3357C90.728 35.6885 90.112 35.1357 89.56 34.6485C89.016 34.1517 88.512 33.7037 88.056 33.3517C87.144 32.5925 86.48 32.0405 86.016 31.6885C85.096 30.9357 85.12 30.7837 85.84 31.0885C87.312 31.6405 91.552 34.1605 95.704 38.2485C97.792 40.2637 99.808 42.6885 101.576 45.2237C102.92 47.1445 104.104 49.1197 105.128 51.0237C105.2 51.3597 105.28 51.6965 105.344 52.0157C106.24 54.5277 107.384 58.5517 107.832 63.1357C107.968 64.0557 108.04 65.0237 108.088 65.9997C107.632 63.6797 106.984 61.2957 106.136 58.9277ZM106.784 88.3117C105.408 90.1117 103.672 92.1997 101.56 94.2557C99.328 96.4317 96.744 98.5437 94.12 100.392C91.48 102.208 88.808 103.744 86.456 104.904C85.272 105.496 84.168 105.96 83.216 106.4C82.248 106.792 81.4 107.112 80.744 107.352C79.416 107.848 78.768 107.96 79.136 107.76C77.992 107.888 79.656 107.248 82.36 106C85.056 104.744 88.768 102.784 91.744 100.64C95.328 98.3517 98.688 95.6557 101.56 92.7677C103.24 91.0877 104.72 89.3677 106.032 87.6717C105.824 89.0957 106.064 89.0077 107.32 86.5997C107.152 87.1677 106.976 87.7437 106.784 88.3117ZM102.576 97.7277C101.728 98.7517 100.848 99.7517 99.88 100.68C96.096 104.368 91.552 107.432 86.6 109.648C82.264 110.936 77.512 111.616 72.72 111.464C75.592 110.767 78.456 109.92 81.288 108.824C86.048 107 90.704 104.592 95.04 101.592C98.776 98.9837 102.232 95.9197 105.24 92.4637C104.488 94.2317 103.608 95.9997 102.576 97.7277ZM62.408 113.183C62.368 113.176 62.336 113.16 62.296 113.152C63.664 113.032 65.04 112.888 66.432 112.688C67.424 112.824 68.424 112.936 69.432 113C71.488 113.152 73.552 113.136 75.632 112.983C71.296 113.712 66.824 113.776 62.408 113.183ZM75.288 17.1205C75.912 17.2565 76.544 17.4085 77.168 17.5685C77.84 17.9765 78.464 18.4325 79.104 18.8485C79.616 19.1925 80.104 19.5285 80.608 19.8637C79.112 19.3685 77.808 19.0005 76.608 18.7125C76.184 18.6085 75.776 18.4797 75.376 18.4005C74.968 18.3285 74.56 18.2565 74.16 18.1845C73.344 18.0565 72.56 17.8405 71.696 17.7685C71.608 17.7605 71.504 17.7445 71.424 17.7365C69.68 17.2565 67.68 16.8085 65.272 16.4405C68.592 16.2805 71.984 16.4405 75.288 17.1205ZM84.248 22.7365C83.824 22.5205 83.408 22.3125 83 22.1125C80.696 21.0245 78.68 20.1845 76.472 19.3605C77.12 19.4565 77.776 19.5445 78.424 19.6405C79.136 19.7685 79.816 19.9365 80.512 20.0797C80.712 20.1285 80.912 20.1685 81.104 20.2085C81.152 20.2325 81.184 20.2565 81.224 20.2797C81.88 20.7845 82.504 21.3205 83.136 21.8085C83.52 22.1285 83.888 22.4405 84.248 22.7365ZM83.512 19.6725C86.736 21.9685 90.008 24.8565 92.952 28.1445C91.056 26.7205 89.336 25.5997 87.776 24.6725C87.008 23.9205 86.28 23.2085 85.528 22.5285C84.264 21.5285 83.032 20.4965 81.568 19.4565C80.952 19.0725 80.296 18.6725 79.616 18.2565C80.944 18.6637 82.232 19.1365 83.512 19.6725ZM59.152 10.4005C58.64 10.4085 58.144 10.4325 57.656 10.4485C57.176 10.4645 56.696 10.5285 56.2 10.5685C55.2318 10.6565 54.2562 10.7445 53.2478 10.8405C52.2318 11.0085 51.1756 11.1925 50.0397 11.4085C49.7438 11.4637 49.4562 11.5205 49.1603 11.5765C48.8718 11.6565 48.5682 11.7365 48.2641 11.8165C47.6478 11.9925 47.0078 12.1765 46.3438 12.3685C44.9844 12.7125 43.5756 13.3205 41.9682 13.9445C41.1522 14.2485 40.3359 14.6565 39.4797 15.0965C38.6244 15.5285 37.7041 15.9685 36.7756 16.5045C36.5041 16.6725 36.2078 16.8565 35.9116 17.0405C34.9116 17.4725 33.8959 17.9845 32.8884 18.5925C29.5041 20.5685 26.3282 23.5125 23.9522 26.7045C23.6318 27.1285 23.3282 27.5605 23.0318 27.9837C21.7116 29.5285 20.3922 31.2405 19.1282 33.1197C18.6397 33.5037 18.2 33.8637 17.7844 34.1837C18.4244 33.8325 17.6959 34.6485 16.3359 36.3197C17.2078 33.7685 18.2959 31.2965 19.5682 28.9685C17.6641 31.8245 16.1282 34.8965 14.9359 38.0965C14.4562 38.7125 13.9438 39.3925 13.4244 40.1285C14.1844 36.5285 15.4797 32.8405 17.4478 29.2725C19.0562 26.3045 21.1438 23.4565 23.6156 20.8797C24.8797 19.6325 26.2244 18.4085 27.6718 17.3205C28.3922 16.7765 29.1682 16.2965 29.9203 15.7845C30.6641 15.2485 31.4641 14.8325 32.2718 14.4005C35.4562 12.6725 38.8959 11.4005 42.3844 10.7125C45.8641 9.99246 49.3682 9.65646 52.7844 9.75246C55.0641 9.84046 57.296 10.0565 59.48 10.3845C59.368 10.3925 59.256 10.4005 59.152 10.4005ZM55.7041 110.152C55.1438 109.967 54.5756 109.792 53.9359 109.592C53.0244 109.264 52.0318 108.92 50.9603 108.568C49.9282 108.16 48.8 107.72 47.5922 107.248C45.8884 106.544 44.0884 105.68 42.2318 104.632C41.2 103.808 40.3041 103.008 39.4641 102.208C40.0244 102.616 40.5438 102.984 41.0244 103.32C43.9603 105.224 45.8797 105.92 47.7922 106.632C48.6078 106.896 49.4318 107.168 50.3522 107.464C52.2562 108.472 54.2318 109.352 56.256 110.112C56.064 110.128 55.8884 110.136 55.7041 110.152ZM28.6641 106.792C24.8318 104.296 21.3844 101.28 18.4718 97.8877C10.9282 89.1437 6.7756 77.7037 7.53592 66.1837C7.67968 65.6717 7.8884 64.9837 8.09592 64.1757C8.20784 63.6877 8.34376 63.1357 8.47968 62.5597C8.60784 63.3037 8.74376 64.0557 8.8884 64.7917C9.4884 67.6557 10.2156 70.4637 11.0641 73.2157C11.0959 73.3357 11.1041 73.4637 11.1359 73.5837C11.2478 74.1117 11.3756 74.6397 11.4884 75.1677C11.3041 74.8877 11.1603 74.7437 11.0397 74.7437C10.7922 74.7357 10.6884 75.5837 10.9603 77.0237C11.4 79.9357 13.1203 85.3597 16.6959 91.0557C20.1844 96.7757 25.4397 102.72 31.3359 107.616C30.4397 107.352 29.5522 107.08 28.6641 106.792ZM19.0718 35.7605C18.6244 36.5685 18.0959 37.5285 17.5282 38.5925C15.8797 40.8237 14.7438 42.7685 14.6078 43.2237C14.8562 41.7837 15.1603 40.3605 15.5359 38.9605C15.6884 38.3605 15.8884 37.7685 16.0797 37.1837C16.2562 36.9925 16.4318 36.7925 16.6 36.6157C16.9041 36.2885 17.1922 35.9765 17.4884 35.6637C17.7922 35.3837 18.0797 35.1037 18.3682 34.8405C18.9282 34.3125 19.4478 33.8245 19.9359 33.3765C19.9844 33.3285 20.0244 33.2965 20.0797 33.2485C19.6718 34.1605 19.3116 35.0245 19.0318 35.7997C19.0478 35.7925 19.0562 35.7765 19.0718 35.7605ZM13.2797 40.7997C13.7359 40.1125 14.2 39.4325 14.6884 38.7605C14.6959 38.7517 14.6959 38.7357 14.7116 38.7285C13.8397 41.1685 13.1922 43.6637 12.7438 46.1917C12.7041 46.2637 12.6641 46.3445 12.6156 46.4157C12.7041 44.5917 12.9116 42.7125 13.2797 40.7997ZM121.904 58.3597C122.04 61.7917 121.936 63.9357 121.816 64.9997C121.664 66.0717 121.512 66.0717 121.36 65.2397C121.016 63.5917 120.576 58.6557 119.168 52.4797C118.424 49.4077 117.44 46.0237 116.136 42.6237C114.832 39.2325 113.144 35.8405 111.208 32.7285C109.264 29.6085 107.048 26.7765 104.704 24.4965C104.424 24.1997 104.144 23.9205 103.864 23.6405C103.568 23.3685 103.272 23.1125 102.984 22.8565C102.4 22.3605 101.824 21.8637 101.28 21.4005C100.096 20.5605 99.056 19.7365 98 19.1445C92.568 15.5605 87.424 13.6325 82.984 12.4637C82.76 12.3605 82.528 12.2485 82.32 12.1445C79.352 10.3125 76.136 8.70448 72.728 7.48047C69.32 6.26447 65.784 5.24048 62.056 4.68848C58.32 4.13648 54.4797 3.84847 50.5203 4.08047C46.5603 4.32848 42.5203 5.01648 38.5203 6.26447C34.5116 7.52847 30.6078 9.45647 27.0478 11.9045C23.4397 14.3205 20.3116 17.3845 17.7203 20.6797C12.5282 27.3365 9.43968 34.9997 8.19216 42.6637C7.7756 45.2637 7.56032 47.8397 7.5116 50.3917C7.27968 50.9277 7.03184 51.4797 6.8244 52.0237C5.4884 55.3685 4.50408 58.7197 4 61.5437C4.8156 58.3197 6.07184 55.2325 7.5116 52.2485C7.53592 53.9685 7.6244 55.6557 7.7844 57.3437C6.83968 60.3117 6.2244 63.0957 5.83184 65.7197C5.3844 68.9517 5.30408 71.8957 5.39216 74.7357C5.56816 77.5357 5.83968 80.2477 6.46408 82.9037C6.59216 83.5917 6.76816 84.2397 6.96032 84.9037C7.14376 85.5677 7.3116 86.2397 7.53592 86.9117C7.99216 88.2317 8.43968 89.6077 9.05624 90.9437C9.60784 92.3197 10.3282 93.6637 11.0718 95.0717C11.8884 96.4317 12.7438 97.8717 13.7922 99.2797C14.2718 99.9437 14.7922 100.616 15.3359 101.288C13.9756 100.616 12.6 99.9197 11.2 99.1677C12.6959 100.144 14.3203 101.136 16.0318 102.128C17.6641 104.032 19.5682 105.944 21.8397 107.816C25.2797 110.6 29.4884 113.296 34.7438 115.4C35.5359 115.296 34.2318 114.608 33.2244 113.912C32.1844 113.224 31.3844 112.664 32.9682 113.048C35.7603 114.288 37.8478 114.896 39.6156 115.383C40.4884 115.648 41.3203 115.8 42.1116 115.983C42.9041 116.16 43.6959 116.328 44.5438 116.472C46.2959 117.392 48.0156 118.208 49.6641 118.88C57.056 122.008 62.024 122.624 65.176 122.871C68.36 123.064 69.92 122.792 71.472 122.551C72.256 122.408 73.056 122.264 74.08 122.128C75.104 121.919 76.344 121.792 78.04 121.487C79.728 121.208 81.872 120.872 84.64 120.192C87.408 119.512 90.832 118.551 94.952 116.728C97.032 115.896 98.104 115.535 98.4 115.496C98.696 115.464 98.28 115.919 97.312 116.496C95.416 117.783 91.344 119.76 87.248 121.08C83.168 122.456 79.104 123.144 77.6 123.544C76.832 123.751 76.712 123.903 77.536 123.976C78.368 124.016 80.144 124.056 83.208 123.664C86.016 123 88.824 122.208 91.544 121.119C92.912 120.624 94.24 119.983 95.576 119.383C96.248 119.072 96.896 118.712 97.536 118.376C98.184 118.024 98.848 117.696 99.472 117.296C104.152 114.096 107.864 110.528 110.904 106.32C113.928 102.096 116.32 97.3677 118.064 91.6637C118.384 90.8237 118.656 89.9277 118.968 89.0077C119.248 88.0797 119.496 87.1277 119.76 86.1677C119.968 85.2157 120.192 84.2477 120.384 83.3117C120.552 82.3757 120.728 81.4717 120.856 80.6077C121.4 77.1597 121.536 74.5517 121.776 74.4077C121.752 77.7437 121.584 80.0237 121.576 81.3277C121.536 82.6317 121.672 82.9597 121.976 82.4077C122.6 81.3117 123.856 76.6077 124 69.4077C123.28 62.8477 122.76 61.3357 121.904 58.3597Z" fill="#A117FF"/>
<path d="M58.5767 57.5507C56.1999 42.7165 61.3961 36.3691 64.573 34.8659C64.7839 34.7661 65.0117 34.7044 65.2444 34.6877C68.3647 34.4629 68.1356 38.1446 68.3818 39.8887C68.9702 47.8227 71.0873 67.0408 70.4873 80.3874C69.3045 106.696 60.5653 111.004 53.9882 111.67C41.8302 112.901 38.0925 101.649 39.5084 95.7842C40.2916 92.5403 41.3927 93.1558 41.3939 94.6061C41.4024 105.192 47.8868 106.836 51.4565 106.696C63.6424 106.216 61.6504 76.7338 58.5767 57.5507Z" fill="#FFA522"/>
<path d="M66.0552 14.2299C56.3149 20.8251 62.937 32.0702 64.536 32.2687C66.135 32.4672 66.1942 31.1874 70.3246 20.2743C73.6289 11.5438 68.8551 12.607 66.0552 14.2299Z" fill="#D59EFF"/>
</svg>
