<?xml version="1.0" standalone="no"?>
<!DOCTYPE svg PUBLIC "-//W3C//DTD SVG 20010904//EN"
 "http://www.w3.org/TR/2001/REC-SVG-20010904/DTD/svg10.dtd">
<svg version="1.0" xmlns="http://www.w3.org/2000/svg"
 width="700.000000pt" height="700.000000pt" viewBox="0 0 700.000000 700.000000"
 preserveAspectRatio="xMidYMid meet">
<metadata>
Created by potrace 1.14, written by Peter Selinger 2001-2017
</metadata>
<g transform="translate(0.000000,700.000000) scale(0.100000,-0.100000)"
fill="#000000" stroke="none">
<path d="M2705 6774 c-367 -39 -644 -113 -910 -244 -255 -125 -442 -257 -635
-450 -434 -433 -691 -1016 -740 -1675 -12 -154 -14 -165 -61 -286 -44 -116
-119 -359 -119 -384 1 -5 22 49 49 120 27 72 64 164 83 205 l35 75 7 -120 c4
-66 8 -129 8 -140 0 -11 -16 -81 -35 -155 -206 -768 -65 -1565 383 -2170 33
-44 58 -80 55 -80 -3 0 -32 14 -65 30 -33 17 -60 28 -60 26 0 -3 38 -28 85
-56 61 -37 115 -82 192 -162 217 -223 451 -392 728 -528 88 -43 170 -81 183
-85 42 -12 22 13 -55 66 -99 68 -79 75 60 21 145 -57 276 -96 424 -127 98 -21
150 -39 223 -75 291 -145 620 -250 902 -286 194 -24 355 -16 663 35 533 88
699 131 1050 271 189 76 232 90 220 71 -21 -35 -258 -160 -432 -230 -148 -59
-299 -104 -519 -156 -109 -26 -203 -51 -209 -57 -20 -21 291 -1 401 26 235 58
463 143 684 257 309 158 625 453 833 775 128 198 217 389 308 654 101 295 140
454 179 735 36 261 39 263 33 25 -5 -203 -4 -224 10 -210 42 40 101 350 113
595 8 155 -17 362 -69 570 l-32 130 -6 -183 c-6 -199 -19 -249 -37 -140 -6 35
-20 131 -32 213 -100 704 -320 1285 -661 1742 -91 122 -338 369 -444 445 -282
200 -577 346 -875 433 -58 17 -128 47 -179 77 -332 195 -727 329 -1131 383
-119 16 -515 28 -605 19z m296 -315 c247 -19 254 -23 74 -38 -360 -29 -659
-113 -955 -268 -69 -36 -166 -86 -216 -112 -125 -65 -244 -145 -346 -234 -124
-110 -173 -166 -412 -484 -49 -65 -107 -136 -130 -159 -23 -23 -56 -62 -74
-88 -19 -26 -36 -46 -38 -43 -5 5 52 147 101 253 18 41 32 74 30 74 -12 0
-155 -283 -195 -385 -13 -33 -30 -68 -38 -77 -7 -9 -11 -21 -8 -26 3 -5 -5
-40 -18 -78 -12 -38 -32 -109 -44 -159 -40 -173 -42 -178 -36 -105 13 169 26
232 61 283 39 57 43 75 8 32 -31 -37 -31 -32 0 82 132 495 450 936 868 1208
101 65 318 171 428 209 167 57 378 99 569 115 142 12 222 12 371 0z m848 -194
c35 -18 43 -34 50 -110 l6 -60 85 -11 c168 -22 225 -40 316 -101 46 -31 83
-57 82 -59 -2 -1 -48 11 -103 27 -103 30 -338 79 -378 79 -19 0 -25 -8 -35
-47 -15 -55 -227 -623 -249 -668 -60 -119 -130 -93 -212 78 -130 269 -97 540
88 727 77 78 127 111 208 139 70 24 105 26 142 6z m626 -306 c50 -18 112 -50
148 -77 124 -91 319 -265 393 -349 l45 -53 -133 89 c-73 49 -167 120 -208 158
-89 81 -225 188 -295 231 -27 18 -47 32 -43 32 4 0 46 -14 93 -31z m-131 -45
c83 -16 93 -21 169 -81 44 -34 78 -63 75 -63 -3 0 -48 20 -99 44 -52 23 -137
60 -189 81 -104 41 -121 50 -75 42 17 -4 70 -14 119 -23z m465 -673 c166 -97
413 -306 551 -466 136 -157 283 -368 363 -520 59 -113 142 -445 172 -685 20
-168 18 -174 -15 -44 -15 61 -47 164 -70 230 -23 65 -47 137 -52 159 -52 201
-115 394 -117 360 -1 -6 6 -42 14 -80 22 -107 19 -108 -35 -6 -28 52 -76 135
-108 185 -31 50 -77 136 -102 191 -46 100 -168 325 -176 325 -3 0 -2 -30 2
-67 l7 -68 -166 171 c-92 94 -221 216 -287 270 -66 54 -120 102 -120 106 0 12
58 -14 139 -61z m-3748 -149 c-33 -78 -93 -191 -127 -237 -12 -16 -48 -70 -79
-120 -31 -49 -54 -79 -51 -65 26 122 58 246 71 277 14 33 203 229 212 219 2
-1 -10 -35 -26 -74z m2600 -18 c30 -27 48 -67 59 -127 11 -62 83 -904 105
-1232 54 -818 38 -1349 -55 -1815 -115 -576 -351 -904 -707 -984 -449 -101
-818 130 -899 563 -28 146 -6 331 46 393 19 22 21 22 34 6 8 -11 15 -57 19
-115 19 -331 162 -535 415 -589 184 -38 329 13 434 156 90 122 147 293 190
563 21 131 23 176 22 562 0 497 -19 739 -104 1315 -41 272 -52 438 -40 592 16
212 56 363 134 503 43 77 151 191 206 218 43 22 112 17 141 -9z m-3110 -1880
c79 -299 74 -275 56 -286 -22 -12 -22 -48 3 -168 99 -487 485 -1081 994 -1529
52 -47 94 -86 93 -88 -2 -1 -31 7 -66 18 -76 23 -201 108 -356 242 -416 357
-714 864 -820 1392 -33 164 -45 288 -45 455 0 122 4 155 27 242 l27 101 22
-110 c12 -60 41 -181 65 -269z m5297 -996 c-30 -85 -323 -394 -528 -558 -278
-222 -693 -448 -979 -535 -16 -5 -22 -3 -19 5 2 6 70 42 151 80 82 38 199 96
260 130 146 80 423 265 562 376 136 108 328 295 426 415 66 80 75 87 80 67 5
-22 6 -21 27 12 12 19 22 39 22 44 0 5 2 7 5 4 3 -2 -1 -21 -7 -40z m-124
-325 c-65 -147 -116 -223 -221 -333 -182 -190 -402 -353 -641 -473 -135 -68
-216 -94 -402 -127 -115 -20 -345 -41 -430 -39 l-45 1 50 15 c471 137 756 262
1085 478 211 138 424 316 555 461 37 41 68 74 70 74 2 0 -8 -26 -21 -57z
m-2024 -1043 c41 -6 145 -11 230 -12 128 -1 147 -3 110 -11 -58 -13 -536 -15
-575 -3 -26 8 -19 11 60 21 50 7 92 13 95 13 3 1 39 -3 80 -8z"/>
</g>
</svg>
