<svg xmlns="http://www.w3.org/2000/svg">
    <g id="phone">
        <path d="M15.5562 14.5477L15.1007 15.0272C15.1007 15.0272 14.0181 16.167 11.0631 13.0559C8.10812 9.94484 9.1907 8.80507 9.1907 8.80507L9.47752 8.50311C10.1841 7.75924 10.2507 6.56497 9.63424 5.6931L8.37326 3.90961C7.61028 2.8305 6.13596 2.68795 5.26145 3.60864L3.69185 5.26114C3.25823 5.71766 2.96765 6.30945 3.00289 6.96594C3.09304 8.64546 3.81071 12.259 7.81536 16.4752C12.0621 20.9462 16.0468 21.1239 17.6763 20.9631C18.1917 20.9122 18.6399 20.6343 19.0011 20.254L20.4217 18.7584C21.3806 17.7489 21.1102 16.0182 19.8833 15.312L17.9728 14.2123C17.1672 13.7486 16.1858 13.8848 15.5562 14.5477Z"/>
        <path d="M13.2595 1.88008C13.3257 1.47119 13.7122 1.19381 14.1211 1.26001C14.1464 1.26485 14.2279 1.28007 14.2705 1.28958C14.3559 1.30858 14.4749 1.33784 14.6233 1.38106C14.9201 1.46751 15.3347 1.60991 15.8323 1.83805C16.8286 2.2948 18.1544 3.09381 19.5302 4.46961C20.906 5.84541 21.705 7.17122 22.1617 8.1675C22.3899 8.66511 22.5323 9.07972 22.6187 9.3765C22.6619 9.5249 22.6912 9.64393 22.7102 9.72926C22.7197 9.77193 22.7267 9.80619 22.7315 9.8315L22.7373 9.86269C22.8034 10.2716 22.5286 10.6741 22.1197 10.7403C21.712 10.8063 21.3279 10.5303 21.2601 10.1233C21.258 10.1124 21.2522 10.083 21.2461 10.0553C21.2337 9.99994 21.2124 9.91212 21.1786 9.79597C21.1109 9.56363 20.9934 9.2183 20.7982 8.79262C20.4084 7.94232 19.7074 6.76813 18.4695 5.53027C17.2317 4.2924 16.0575 3.59141 15.2072 3.20158C14.7815 3.00642 14.4362 2.88889 14.2038 2.82122C14.0877 2.78739 13.9417 2.75387 13.8863 2.74154C13.4793 2.67372 13.1935 2.2878 13.2595 1.88008Z"/>
        <path fill-rule="evenodd" clip-rule="evenodd"
              d="M13.4857 5.32954C13.5995 4.93126 14.0146 4.70065 14.4129 4.81444L14.2069 5.53558C14.4129 4.81444 14.4129 4.81444 14.4129 4.81444L14.4144 4.81485L14.4159 4.81529L14.4192 4.81627L14.427 4.81858L14.4468 4.82475C14.4618 4.82957 14.4807 4.83585 14.5031 4.84381C14.548 4.85975 14.6074 4.88242 14.6802 4.91362C14.8259 4.97605 15.0249 5.07248 15.2695 5.21719C15.7589 5.50687 16.4271 5.98805 17.2121 6.77302C17.9971 7.55799 18.4782 8.22618 18.7679 8.71564C18.9126 8.96015 19.009 9.15922 19.0715 9.3049C19.1027 9.37771 19.1254 9.43707 19.1413 9.48198C19.1493 9.50443 19.1555 9.52326 19.1604 9.53834L19.1665 9.55812L19.1688 9.56587L19.1698 9.56921L19.1702 9.57074C19.1702 9.57074 19.1707 9.57218 18.4495 9.77822L19.1707 9.57218C19.2845 9.97046 19.0538 10.3856 18.6556 10.4994C18.2607 10.6122 17.8492 10.3864 17.7313 9.99437L17.7276 9.98359C17.7223 9.96857 17.7113 9.93898 17.6928 9.89578C17.6558 9.80944 17.5887 9.66821 17.4771 9.47962C17.2541 9.10288 16.8514 8.53363 16.1514 7.83368C15.4515 7.13373 14.8822 6.73102 14.5055 6.50805C14.3169 6.39644 14.1757 6.32934 14.0893 6.29234C14.0461 6.27382 14.0165 6.26279 14.0015 6.25746L13.9907 6.25376C13.5987 6.13588 13.3729 5.72443 13.4857 5.32954Z"/>
    </g>

    <g id="whatsapp">
        <path d="M1 23L2.62442 17.0938C1.62204 15.365 1.09533 13.4052 1.09629 11.3955C1.09918 5.11271 6.23629 0 12.5481 0C15.6112 0.000958333 18.4864 1.18833 20.6491 3.34267C22.8108 5.497 24.001 8.3605 24 11.4061C23.9971 17.6899 18.86 22.8026 12.5481 22.8026C10.632 22.8016 8.7437 22.3234 7.07113 21.4149L1 23ZM7.3523 19.3516C8.96613 20.3052 10.5068 20.8763 12.5443 20.8773C17.7902 20.8773 22.0636 16.628 22.0665 11.4042C22.0684 6.16975 17.8152 1.92625 12.552 1.92433C7.30223 1.92433 3.03173 6.17358 3.02981 11.3965C3.02885 13.5288 3.65666 15.1254 4.71104 16.7957L3.7491 20.2917L7.3523 19.3516ZM18.3169 14.1153C18.2457 13.9965 18.055 13.9255 17.7681 13.7828C17.4821 13.64 16.0753 12.9509 15.8124 12.856C15.5505 12.7612 15.3598 12.7133 15.1682 12.9988C14.9776 13.2835 14.4287 13.9255 14.2621 14.1153C14.0955 14.305 13.928 14.329 13.642 14.1862C13.356 14.0434 12.4336 13.7435 11.3407 12.7727C10.4904 12.0175 9.91556 11.085 9.74897 10.7995C9.58239 10.5148 9.73164 10.3605 9.87415 10.2187C10.0032 10.0912 10.1601 9.88617 10.3036 9.71942C10.449 9.55458 10.4962 9.43575 10.5925 9.24504C10.6878 9.05529 10.6406 8.88854 10.5684 8.74575C10.4962 8.60392 9.92422 7.20187 9.68638 6.63167C9.45336 6.07679 9.21745 6.15154 9.0422 6.14292L8.49334 6.13333C8.30269 6.13333 7.99263 6.20425 7.73072 6.48983C7.46881 6.77542 6.7293 7.4635 6.7293 8.86554C6.7293 10.2676 7.75479 11.6217 7.8973 11.8115C8.04078 12.0012 9.91459 14.8781 12.785 16.1115C13.4677 16.4048 14.0012 16.5801 14.4162 16.7114C15.1018 16.928 15.7257 16.8973 16.2187 16.8245C16.7686 16.743 17.9115 16.1355 18.1503 15.4704C18.3891 14.8043 18.3891 14.2341 18.3169 14.1153Z" fill="currentColor"/>
    </g>

    <g id="email">
        <path d="M22 6C22 4.9 21.1 4 20 4H4C2.9 4 2 4.9 2 6M22 6V18C22 19.1 21.1 20 20 20H4C2.9 20 2 19.1 2 18V6M22 6L12 13L2 6"
              stroke-width="2" stroke-linecap="round" stroke-linejoin="round" stroke="currentColor"/>
    </g>

    <g id="instagram">
            <path stroke="currentColor" d="M17.5 6.5H17.51M7 2H17C19.7614 2 22 4.23858 22 7V17C22 19.7614 19.7614 22 17 22H7C4.23858 22 2 19.7614 2 17V7C2 4.23858 4.23858 2 7 2ZM16 11.37C16.1234 12.2022 15.9813 13.0522 15.5938 13.799C15.2063 14.5458 14.5931 15.1514 13.8416 15.5297C13.0901 15.9079 12.2384 16.0396 11.4078 15.9059C10.5771 15.7723 9.80976 15.3801 9.21484 14.7852C8.61992 14.1902 8.22773 13.4229 8.09407 12.5922C7.9604 11.7616 8.09207 10.9099 8.47033 10.1584C8.84859 9.40685 9.45419 8.79374 10.201 8.40624C10.9478 8.01874 11.7978 7.87659 12.63 8C13.4789 8.12588 14.2649 8.52146 14.8717 9.12831C15.4785 9.73515 15.8741 10.5211 16 11.37Z" stroke-width="2" stroke-linecap="round" stroke-linejoin="round"/>
    </g>

    <g id="facebook">
        <path stroke="currentColor" d="M17 2H14C12.6739 2 11.4021 2.52678 10.4645 3.46447C9.52678 4.40215 9 5.67392 9 7V10H6V14H9V22H13V14H16L17 10H13V7C13 6.73478 13.1054 6.48043 13.2929 6.29289C13.4804 6.10536 13.7348 6 14 6H17V2Z" stroke-width="2" stroke-linecap="round" stroke-linejoin="round"/>
    </g>

    <g id="arrow">
        <path d="M12 19L5 12M5 12L12 5M5 12H19" stroke="currentColor" stroke-width="2" stroke-linecap="round" stroke-linejoin="round"/>
    </g>
</svg>