<svg width="20" height="20" viewBox="0 0 20 20" fill="none" xmlns="http://www.w3.org/2000/svg">
<path d="M8.3814 4.24949L8.29997 4.16799L8.2999 4.16792C8.29986 4.16789 8.29983 4.16785 8.29979 4.16781C8.09383 3.96184 7.94695 3.71566 7.86187 3.4523C7.70514 2.96717 7.75814 2.42376 8.03798 1.96595L8.57134 2.2918M8.3814 4.24949C8.38141 4.24951 8.38143 4.24952 8.38144 4.24954L8.48639 4.14459L8.3814 4.24949ZM8.3814 4.24949L9.26521 3.3655L9.18412 3.28443L9.18373 3.28404C9.00665 3.10693 8.9739 2.83155 9.10456 2.61785C9.10456 2.61784 9.10456 2.61784 9.10456 2.61783M9.10456 2.61783C9.10457 2.61782 9.10458 2.61781 9.10458 2.6178C9.28456 2.32329 9.1918 1.93862 8.89731 1.75859C8.60284 1.57857 8.21814 1.67132 8.03809 1.96576L8.57134 2.2918M9.10456 2.61783L8.96428 2.53209L8.96209 2.53075L8.57134 2.2918M9.10456 2.61783L8.81362 2.43994L8.8133 2.43974L8.57134 2.2918M9.26566 3.36595C9.37329 3.47363 9.466 3.59238 9.54303 3.71919L9.13776 5.05995L8.69494 4.92615L8.69268 4.92547L8.54043 4.87947M9.26566 3.36595L9.73596 5.24093L9.38499 5.13481L9.3843 5.1346L9.13774 5.06006L9.13771 5.0601M9.26566 3.36595L8.59358 4.03749L8.38151 4.2496L9.26566 3.36595ZM8.54043 4.87947L8.53948 4.87918L8.54043 4.87947ZM8.54043 4.87947L9.13773 5.06005L9.13771 5.0601M9.13771 5.0601L8.95862 5.65258L9.13771 5.0601ZM9.13777 5.05996L9.54306 3.71924C9.81692 4.17006 9.89261 4.7226 9.73603 5.24072L9.13777 5.05996Z" fill="white"/>
<path d="M14.5327 3.72637C14.8712 3.79407 15.0907 4.12333 15.0231 4.46181L14.9031 5.06175C14.7379 5.88743 14.143 6.56132 13.3441 6.82759C12.9709 6.95202 12.6929 7.26691 12.6158 7.65273L12.4958 8.2527C12.4281 8.59112 12.0988 8.8107 11.7603 8.74295C11.4219 8.67528 11.2024 8.34603 11.2701 8.00753L11.3901 7.40758C11.5551 6.58191 12.1501 5.90802 12.9489 5.64174C13.3221 5.51732 13.6001 5.20243 13.6773 4.81661L13.7973 4.21666C13.865 3.87818 14.1942 3.65868 14.5327 3.72637Z" fill="white"/>
<path fill-rule="evenodd" clip-rule="evenodd" d="M9.55733 7.13595C8.87516 6.4537 8.31299 5.89152 7.82438 5.52925C7.31957 5.15499 6.75854 4.89125 6.11246 5.04377C5.46638 5.19629 5.08253 5.68308 4.7984 6.2436C4.52338 6.78612 4.272 7.54035 3.96693 8.45563L2.52523 12.7808C2.15577 13.889 1.85597 14.7884 1.73191 15.4858C1.60673 16.1895 1.61936 16.9035 2.14944 17.4335C2.67953 17.9636 3.39358 17.9763 4.09725 17.8511C4.7946 17.727 5.69392 17.4273 6.80214 17.0578L11.1273 15.6161C12.0426 15.311 12.7969 15.0596 13.3394 14.7846C13.8999 14.5005 14.3867 14.1166 14.5392 13.4705C14.6917 12.8245 14.428 12.2635 14.0537 11.7586C13.6915 11.27 13.1293 10.7079 12.4471 10.0257L9.55733 7.13595ZM7.03709 6.50214C7.05107 6.51217 7.06533 6.52258 7.0799 6.53338C7.48499 6.83372 7.98193 7.3283 8.71041 8.05678L9.34358 8.68996C9.33099 8.72271 9.31708 8.75971 9.30216 8.80071C9.23791 8.97671 9.15349 9.22746 9.06941 9.53405C8.90199 10.1441 8.73124 10.9919 8.73124 11.9213C8.73124 12.8064 8.90274 13.6544 9.06858 14.2709C9.13766 14.5276 9.20682 14.7481 9.26449 14.9195L7.06893 15.6513C7.05988 15.6102 7.04987 15.5644 7.03902 15.5142C6.98824 15.2795 6.91952 14.951 6.84781 14.5766C6.70302 13.8208 6.55134 12.9045 6.5049 12.1963C6.42818 11.0265 6.57804 9.49988 6.75523 8.23705C6.84298 7.61175 7.0066 6.66916 7.0066 6.66916C7.0173 6.60979 7.0275 6.55402 7.03709 6.50214ZM5.58718 7.5864C5.45524 7.94506 5.31038 8.37813 5.13625 8.90055L3.72833 13.1243C3.33753 14.2967 3.06863 15.1085 2.96258 15.7047C2.85573 16.3054 2.95518 16.4715 3.03333 16.5497C3.11148 16.6278 3.27768 16.7273 3.87832 16.6205C4.37032 16.5329 5.00929 16.3345 5.87664 16.048C5.86176 15.9818 5.84147 15.8904 5.81727 15.7785C5.76491 15.5364 5.6941 15.198 5.62013 14.8118C5.47357 14.0466 5.30934 13.0675 5.25758 12.278C5.17203 10.9735 5.33808 9.34105 5.51736 8.06339C5.54046 7.8988 5.56388 7.73935 5.58718 7.5864ZM10.4503 14.5241L10.6825 14.4468C11.6598 14.121 12.3244 13.8977 12.7742 13.6697C13.2158 13.4459 13.2969 13.2925 13.3227 13.1834C13.3484 13.0742 13.3445 12.9008 13.0497 12.5031C12.7493 12.098 12.2547 11.6011 11.5262 10.8726L10.3291 9.67546C10.3112 9.7353 10.293 9.79855 10.2748 9.8648C10.1263 10.406 9.98124 11.1379 9.98124 11.9213C9.98124 12.4368 10.0522 12.9505 10.1462 13.4036C10.1864 13.597 10.2307 13.7794 10.2757 13.9461C10.3377 14.1767 10.3996 14.3736 10.4503 14.5241Z" fill="white"/>
<path d="M16.734 10.4001C16.98 10.1818 17.3306 10.1264 17.632 10.2582L17.875 10.3644C18.1912 10.5027 18.5597 10.3584 18.698 10.0422C18.8363 9.72591 18.692 9.35741 18.3757 9.21916L18.1328 9.11291C17.385 8.78591 16.5153 8.92333 15.9046 9.46483C15.6328 9.70583 15.2372 9.74591 14.9226 9.56424L14.7452 9.46183C14.4463 9.28924 14.064 9.39166 13.8915 9.69066C13.7189 9.98958 13.8213 10.3718 14.1202 10.5444L14.2976 10.6468C15.0782 11.0975 16.0595 10.9981 16.734 10.4001Z" fill="white"/>
</svg>
