<svg width="20" height="20" viewBox="0 0 20 20" fill="none" xmlns="http://www.w3.org/2000/svg">
<path d="M17.8831 10.6615C17.8118 10.583 17.7358 10.5104 17.6567 10.4425C18.2715 9.42766 18.5718 8.43587 18.5718 7.42536C18.5718 6.11748 18.1194 4.89426 17.2978 3.98106C16.4385 3.02596 15.2476 2.5 13.9444 2.5C12.5013 2.5 11.2111 3.17719 10.2132 4.45827C10.0126 4.71588 9.84317 4.97324 9.70265 5.21184C9.56213 4.97324 9.39269 4.71588 9.19205 4.45827C8.1942 3.17715 6.90399 2.5 5.46086 2.5C4.15766 2.5 2.96679 3.02599 2.10751 3.98106C1.28595 4.89426 0.833496 6.11744 0.833496 7.42536C0.833496 8.9118 1.47442 10.3423 2.85054 11.9271C4.06633 13.3273 5.7859 14.7828 7.7769 16.4683C8.27643 16.8911 8.79292 17.3283 9.32623 17.7854C9.43454 17.8782 9.56858 17.9246 9.70265 17.9246C9.83669 17.9246 9.97079 17.8782 10.0791 17.7854C10.612 17.3286 11.1282 16.8917 11.6274 16.4691C11.6915 16.4148 11.7548 16.3612 11.8183 16.3075C12.1302 16.5773 12.4627 16.8563 12.8125 17.1494C13.0569 17.3543 13.3096 17.566 13.5702 17.7872C13.6781 17.8788 13.8113 17.9246 13.9444 17.9246C14.0776 17.9246 14.2108 17.8788 14.3187 17.7872C14.5793 17.566 14.832 17.3542 15.0764 17.1494C17.1132 15.4423 18.5849 14.2089 18.5849 12.5336C18.5849 11.8244 18.3357 11.1595 17.8831 10.6615ZM9.70265 16.5852C9.2996 16.2415 8.90703 15.9092 8.52433 15.5853C6.56966 13.9307 4.88158 12.5017 3.72403 11.1686C2.52505 9.78772 1.99035 8.63329 1.99035 7.42536C1.99035 5.27699 3.48234 3.65686 5.46089 3.65686C6.53988 3.65686 7.48147 4.15712 8.25955 5.14378C8.87496 5.92419 9.15197 6.72615 9.15433 6.73298C9.23324 6.96816 9.45358 7.12622 9.70164 7.12678C9.70206 7.12678 9.70244 7.12678 9.70293 7.12678C9.95051 7.12678 10.1709 6.96861 10.2507 6.73413C10.2534 6.72612 10.5304 5.92419 11.1459 5.14375C11.9239 4.15712 12.8655 3.65686 13.9445 3.65686C15.923 3.65686 17.415 5.27699 17.415 7.42536C17.415 8.25375 17.1617 9.05405 16.6228 9.91676C16.4296 9.87086 16.2288 9.84652 16.0227 9.84652C15.0227 9.84652 14.356 10.3978 13.9445 10.9327C13.5329 10.3978 12.8662 9.84652 11.8662 9.84652C11.1441 9.84652 10.4834 10.1359 10.0058 10.6615C9.55322 11.1595 9.30401 11.8244 9.30401 12.5336C9.30401 13.6346 9.93966 14.5447 10.9536 15.5239C10.9289 15.5447 10.1053 16.2419 9.70265 16.5852ZM14.3333 16.2628C14.206 16.3695 14.0764 16.4781 13.9444 16.5891C13.8125 16.4782 13.6829 16.3695 13.5556 16.2628C11.7589 14.757 10.4608 13.669 10.4608 12.5336C10.4608 11.6612 11.065 11.0033 11.8662 11.0033C12.9299 11.0033 13.3763 12.2361 13.3973 12.2961C13.4774 12.5298 13.6968 12.6881 13.944 12.6881C14.1919 12.6881 14.4118 12.5314 14.4914 12.2966C14.5099 12.2438 14.9557 11.0033 16.0226 11.0033C16.8238 11.0033 17.428 11.6612 17.428 12.5336C17.4281 13.6691 16.13 14.757 14.3333 16.2628Z" fill="white"/>
</svg>
