<svg width="28" height="28" viewBox="0 0 28 28" fill="none" xmlns="http://www.w3.org/2000/svg">
<g clip-path="url(#clip0_1681_785)">
<path d="M28 14C28 6.26719 21.7328 0 14 0C6.26719 0 0 6.26719 0 14C0 20.9885 5.11656 26.7805 11.8136 27.831V18.0502H8.26164V14H11.8136V10.9162C11.8136 7.41016 13.8999 5.46984 17.0991 5.46984C18.6331 5.46984 20.2366 5.74602 20.2366 5.74602V9.19023H18.4723C16.7311 9.19023 16.1941 10.272 16.1941 11.3766V14H20.0758L19.4545 18.0502H16.1941V27.831C22.8834 26.7805 28 20.9885 28 14Z" fill="#1877F2"/>
<path d="M19.4462 18.05L20.068 13.9999H16.1863V11.3765C16.1863 10.2718 16.731 9.19012 18.4646 9.19012H20.2288V5.7459C20.2288 5.7459 18.6254 5.46973 17.0914 5.46973C13.8927 5.46973 11.8059 7.41059 11.8059 10.9161V13.9999H8.25391V18.05H11.8059V27.8309C12.5195 27.9457 13.248 27.9999 13.9923 27.9999C14.7366 27.9999 15.465 27.9386 16.1787 27.8309V18.05H19.4462Z" fill="white"/>
</g>
<defs>
<clipPath id="clip0_1681_785">
<rect width="28" height="28" fill="white"/>
</clipPath>
</defs>
</svg>
