<svg width="28" height="28" viewBox="0 0 28 28" fill="none" xmlns="http://www.w3.org/2000/svg">
<path d="M28 14C28 21.7321 21.7315 28 13.9998 28C6.26819 28 0 21.7321 0 14C0 6.26791 6.26819 0 13.9998 0C21.7315 0 28 6.26791 28 14Z" fill="#D59EFF"/>
<path d="M4.23779 16.7461H17.9339V19.3682H4.23779V16.7461Z" fill="#2F3842"/>
<path d="M3.92969 12.6475L3.92969 16.3694H16.9622V9.06705L3.92969 9.06705L3.92969 12.6475Z" fill="white"/>
<path d="M16.9622 12.6474V16.3692H3.92973L3.92973 9.06689L16.9622 9.06689V12.6474ZM2.9585 8.09565L2.9585 17.3408L17.9338 17.3408V8.09565L2.9585 8.09565Z" fill="#330E4D"/>
<path d="M22.367 9.58615L25.0112 14.4773V19.3682H23.5071C23.5071 18.2445 22.5969 17.3343 21.4733 17.3343C20.35 17.3343 19.4394 18.2445 19.4394 19.3682H17.9346V9.58615H22.367Z" fill="#A3A3A3"/>
<path d="M18.9106 15.4008C18.9106 15.5165 19.0049 15.6104 19.1202 15.6104H20.2456C20.3612 15.6104 20.4558 15.5165 20.4558 15.4008C20.4558 15.2848 20.3612 15.1917 20.2456 15.1917H19.1202C19.0049 15.1917 18.9106 15.2848 18.9106 15.4008Z" fill="#2F3842"/>
<path d="M23.2417 18.3666H25.5864V18.8777C25.5864 19.1486 25.3669 19.3682 25.096 19.3682H23.5062C23.5062 19.0041 23.4102 18.6628 23.2417 18.3666Z" fill="#2F3842"/>
<path d="M21.4723 17.3343C22.2312 17.3343 22.8926 17.7505 23.2416 18.3666C23.4101 18.6628 23.5061 19.0041 23.5061 19.3682H23.4826H19.4385C19.4385 18.2445 20.349 17.3343 21.4723 17.3343Z" fill="#2F3842"/>
<path d="M22.9476 19.3679C22.9476 20.1825 22.287 20.8435 21.4731 20.8435C20.6582 20.8435 19.9976 20.1825 19.9976 19.3679C19.9976 18.5534 20.6582 17.8927 21.4731 17.8927C22.287 17.8927 22.9476 18.5534 22.9476 19.3679Z" fill="black"/>
<path d="M20.6177 19.368C20.6177 19.8403 21.0007 20.2236 21.4733 20.2236V18.5128C21.0007 18.5128 20.6177 18.8958 20.6177 19.368Z" fill="#D5D8D8"/>
<path d="M21.4731 18.5128V20.2236C21.9443 20.2236 22.3277 19.8403 22.3277 19.368C22.3277 18.8958 21.9443 18.5128 21.4731 18.5128Z" fill="#D5D8D8"/>
<path d="M24.4336 17.2363C24.4336 16.9657 24.6535 16.7459 24.924 16.7459H25.01V17.7478H24.4336V17.2363Z" fill="#E9DAF5"/>
<path d="M4.8146 18.2979C4.8146 18.0274 4.59473 17.8075 4.32346 17.8075H4.23779V18.8091H4.8146V18.2979Z" fill="#BD5DFF"/>
<path d="M9.25345 19.3679C9.25345 20.1825 8.59275 20.8435 7.77858 20.8435C6.96369 20.8435 6.30371 20.1825 6.30371 19.3679C6.30371 18.5534 6.96369 17.8927 7.77858 17.8927C8.59275 17.8927 9.25345 18.5534 9.25345 19.3679Z" fill="black"/>
<path d="M6.92285 19.368C6.92285 19.8403 7.30549 20.2236 7.77807 20.2236V18.5128C7.30549 18.5128 6.92285 18.8958 6.92285 19.368Z" fill="#D5D8D8"/>
<path d="M7.77832 18.5128V20.2236C8.24984 20.2236 8.63355 19.8403 8.63355 19.368C8.63355 18.8958 8.24984 18.5128 7.77832 18.5128Z" fill="#D5D8D8"/>
<path d="M11.4019 18.1109C11.4019 17.8528 11.6107 17.6447 11.8684 17.6447H15.9171C16.1755 17.6447 16.3833 17.8528 16.3833 18.1109V18.8091H11.4019V18.1109Z" fill="#A3A3A3"/>
<path d="M16.3833 18.809V19.5076C16.3833 19.7653 16.1755 19.9734 15.9171 19.9734H11.8684C11.6107 19.9734 11.4019 19.7653 11.4019 19.5076V18.809H16.3833Z" fill="#A3A3A3"/>
<path d="M18.9106 10.6574V14.4771H21.8754L19.8101 10.6574H18.9106Z" fill="white"/>
<path d="M21.7559 10.6574H19.8105L21.8758 14.4771H23.8207L21.7559 10.6574Z" fill="white"/>
<path d="M9.10107 10.4404L12.8489 12.8498L9.10107 15.2592V10.4404Z" fill="#A117FF"/>
</svg>
