<svg width="28" height="28" viewBox="0 0 28 28" fill="none" xmlns="http://www.w3.org/2000/svg">
<rect width="28" height="28" rx="14" transform="matrix(1 0 0 -1 0 28)" fill="#FF0000"/>
<path d="M17.3753 15.9408C18.2861 15.2973 18.7415 14.9755 18.8977 14.5634C19.0341 14.2037 19.0341 13.7963 18.8977 13.4365C18.7415 13.0245 18.2861 12.7028 17.3753 12.0591L13.0973 9.03625C12.0864 8.32195 11.581 7.96476 11.1639 8.00274C10.8003 8.03579 10.467 8.24456 10.2495 8.57564C10 8.95543 10 9.62932 10 10.9771L10 17.0229C10 18.3706 10 19.0445 10.2495 19.4243C10.467 19.7554 10.8003 19.9642 11.1639 19.9973C11.581 20.0352 12.0864 19.678 13.0973 18.9637L17.3753 15.9408Z" fill="white"/>
</svg>
