<svg width="84" height="42" viewBox="0 0 84 42" fill="none" xmlns="http://www.w3.org/2000/svg">
<path d="M43.3599 27.0084V41.2606H41.4379V30.6332L36.5801 41.2606H35.2283L30.3493 30.6126V41.2606H28.4273V27.0084H30.4972L35.9042 38.7891L41.3112 27.0084H43.3599Z" fill="#BD5DFF"/>
<path d="M47.1686 28.4295V33.2283H52.5334V34.7729H47.1686V39.7159H53.167V41.2606H45.2466V26.8848H53.167V28.4295H47.1686Z" fill="#BD5DFF"/>
<path d="M59.2857 26.9054C60.8909 26.9054 62.2779 27.2006 63.4466 27.791C64.6293 28.3677 65.5305 29.1984 66.1501 30.2831C66.7837 31.3678 67.1005 32.6447 67.1005 34.1139C67.1005 35.583 66.7837 36.86 66.1501 37.9447C65.5305 39.0157 64.6293 39.8395 63.4466 40.4162C62.2779 40.9791 60.8909 41.2606 59.2857 41.2606H54.7024V26.9054H59.2857ZM59.2857 39.7159C61.1866 39.7159 62.6369 39.2285 63.6366 38.2536C64.6364 37.265 65.1362 35.8851 65.1362 34.1139C65.1362 32.3289 64.6293 30.9353 63.6155 29.9329C62.6158 28.9306 61.1725 28.4295 59.2857 28.4295H56.6245V39.7159H59.2857Z" fill="#BD5DFF"/>
<path d="M70.1848 26.9054V41.2606H68.2628V26.9054H70.1848Z" fill="#BD5DFF"/>
<path d="M80.7896 38.0683H74.3688L73.186 41.2606H71.1584L76.4809 26.9878H78.6986L84 41.2606H81.9724L80.7896 38.0683ZM80.2404 36.5442L77.5792 29.2945L74.9179 36.5442H80.2404Z" fill="#BD5DFF"/>
<path d="M34.7845 11.5064L30.5181 25.8616H28.3637L24.9421 14.3074L21.3938 25.8616L19.2605 25.8822L15.1419 11.5064H17.1907L20.4011 23.6784L23.9494 11.5064H26.1038L29.4831 23.6373L32.7147 11.5064H34.7845Z" fill="#FFA522"/>
<path d="M38.134 11.5064V20.5891C38.134 21.866 38.4509 22.8134 39.0845 23.4313C39.7322 24.0492 40.6263 24.3581 41.7669 24.3581C42.8933 24.3581 43.7734 24.0492 44.407 23.4313C45.0547 22.8134 45.3786 21.866 45.3786 20.5891V11.5064H47.3006V20.5685C47.3006 21.763 47.0542 22.7722 46.5613 23.5961C46.0685 24.4062 45.3997 25.0103 44.5548 25.4085C43.7241 25.8067 42.7877 26.0058 41.7457 26.0058C40.7038 26.0058 39.7604 25.8067 38.9155 25.4085C38.0848 25.0103 37.423 24.4062 36.9301 23.5961C36.4514 22.7722 36.212 21.763 36.212 20.5685V11.5064H38.134Z" fill="#FFA522"/>
<path d="M9.45031 18.9163C8.41246 12.5999 10.6814 9.89716 12.0686 9.25711C12.1607 9.21463 12.2602 9.18835 12.3618 9.18121C13.7243 9.08551 13.6243 10.6532 13.7318 11.3958C13.9887 14.7741 14.9132 22.9571 14.6512 28.6401C14.1347 39.8422 10.3187 41.6766 7.44666 41.9602C2.13774 42.4845 0.505648 37.6933 1.12393 35.1961C1.4659 33.8148 1.94673 34.0769 1.94724 34.6944C1.95093 39.2019 4.78243 39.902 6.34116 39.8422C11.6623 39.6378 10.7924 27.0844 9.45031 18.9163Z" fill="#FFA522"/>
<path d="M12.7158 0.470255C8.46262 3.27848 11.3542 8.06664 12.0524 8.15117C12.7507 8.23569 12.7765 7.69073 14.5801 3.04394C16.023 -0.673483 13.9384 -0.220777 12.7158 0.470255Z" fill="#D59EFF"/>
</svg>
